<svg width="3171" height="1000" viewBox="0 0 3171 1000" fill="none" xmlns="http://www.w3.org/2000/svg">
<circle cx="500" cy="500" r="500" fill="#116DF6"/>
<path d="M422.5 685H376V425H422.5V685ZM399 378C390.667 378 383.5 375.333 377.5 370C371.833 364.333 369 356.833 369 347.5C369 338.167 371.833 330.833 377.5 325.5C383.5 319.833 390.667 317 399 317C407.333 317 414.333 319.833 420 325.5C426 330.833 429 338.167 429 347.5C429 356.833 426 364.333 420 370C414.333 375.333 407.333 378 399 378ZM545.965 425H644.465V464H545.965V584C545.965 597 546.965 607.833 548.965 616.5C550.965 624.833 553.965 631.5 557.965 636.5C561.965 641.167 566.965 644.5 572.965 646.5C578.965 648.5 585.965 649.5 593.965 649.5C607.965 649.5 619.132 648 627.465 645C636.132 641.667 642.132 639.333 645.465 638L654.465 676.5C649.798 678.833 641.632 681.667 629.965 685C618.298 688.667 604.965 690.5 589.965 690.5C572.298 690.5 557.632 688.333 545.965 684C534.632 679.333 525.465 672.5 518.465 663.5C511.465 654.5 506.465 643.5 503.465 630.5C500.798 617.167 499.465 601.833 499.465 584.5V352.5L545.965 344.5V425Z" fill="white"/>
<path d="M1156 685V305L1202.5 297V430C1211.17 426.667 1220.33 424.167 1230 422.5C1240 420.5 1249.83 419.5 1259.5 419.5C1280.17 419.5 1297.33 422.5 1311 428.5C1324.67 434.167 1335.5 442.333 1343.5 453C1351.83 463.333 1357.67 475.833 1361 490.5C1364.33 505.167 1366 521.333 1366 539V685H1319.5V549C1319.5 533 1318.33 519.333 1316 508C1314 496.667 1310.5 487.5 1305.5 480.5C1300.5 473.5 1293.83 468.5 1285.5 465.5C1277.17 462.167 1266.83 460.5 1254.5 460.5C1249.5 460.5 1244.33 460.833 1239 461.5C1233.67 462.167 1228.5 463 1223.5 464C1218.83 464.667 1214.5 465.5 1210.5 466.5C1206.83 467.5 1204.17 468.333 1202.5 469V685H1156ZM1427.14 555.5C1427.14 532.5 1430.48 512.5 1437.14 495.5C1443.81 478.167 1452.64 463.833 1463.64 452.5C1474.64 441.167 1487.31 432.667 1501.64 427C1515.98 421.333 1530.64 418.5 1545.64 418.5C1580.64 418.5 1607.48 429.5 1626.14 451.5C1644.81 473.167 1654.14 506.333 1654.14 551C1654.14 553 1654.14 555.667 1654.14 559C1654.14 562 1653.98 564.833 1653.64 567.5H1475.64C1477.64 594.5 1485.48 615 1499.14 629C1512.81 643 1534.14 650 1563.14 650C1579.48 650 1593.14 648.667 1604.14 646C1615.48 643 1623.98 640.167 1629.64 637.5L1636.14 676.5C1630.48 679.5 1620.48 682.667 1606.14 686C1592.14 689.333 1576.14 691 1558.14 691C1535.48 691 1515.81 687.667 1499.14 681C1482.81 674 1469.31 664.5 1458.64 652.5C1447.98 640.5 1439.98 626.333 1434.64 610C1429.64 593.333 1427.14 575.167 1427.14 555.5ZM1605.64 530C1605.98 509 1600.64 491.833 1589.64 478.5C1578.98 464.833 1564.14 458 1545.14 458C1534.48 458 1524.98 460.167 1516.64 464.5C1508.64 468.5 1501.81 473.833 1496.14 480.5C1490.48 487.167 1485.98 494.833 1482.64 503.5C1479.64 512.167 1477.64 521 1476.64 530H1605.64ZM1798.94 690C1770.27 689.333 1749.94 683.167 1737.94 671.5C1725.94 659.833 1719.94 641.667 1719.94 617V305L1766.44 297V609.5C1766.44 617.167 1767.11 623.5 1768.44 628.5C1769.77 633.5 1771.94 637.5 1774.94 640.5C1777.94 643.5 1781.94 645.833 1786.94 647.5C1791.94 648.833 1798.11 650 1805.44 651L1798.94 690ZM2038.16 555.5C2038.16 525.167 2030.66 501.833 2015.66 485.5C2000.66 469.167 1980.66 461 1955.66 461C1941.66 461 1930.66 461.5 1922.66 462.5C1914.99 463.5 1908.83 464.667 1904.16 466V630C1909.83 634.667 1917.99 639.167 1928.66 643.5C1939.33 647.833 1950.99 650 1963.66 650C1976.99 650 1988.33 647.667 1997.66 643C2007.33 638 2015.16 631.333 2021.16 623C2027.16 614.333 2031.49 604.333 2034.16 593C2036.83 581.333 2038.16 568.833 2038.16 555.5ZM2086.66 555.5C2086.66 575.167 2083.99 593.333 2078.66 610C2073.66 626.667 2066.16 641 2056.16 653C2046.16 665 2033.83 674.333 2019.16 681C2004.83 687.667 1988.33 691 1969.66 691C1954.66 691 1941.33 689 1929.66 685C1918.33 681 1909.83 677.167 1904.16 673.5V777.5H1857.66V433C1868.66 430.333 1882.33 427.5 1898.66 424.5C1915.33 421.167 1934.49 419.5 1956.16 419.5C1976.16 419.5 1994.16 422.667 2010.16 429C2026.16 435.333 2039.83 444.333 2051.16 456C2062.49 467.667 2071.16 482 2077.16 499C2083.49 515.667 2086.66 534.5 2086.66 555.5ZM2320.09 480C2314.43 475.333 2306.26 470.833 2295.59 466.5C2284.93 462.167 2273.26 460 2260.59 460C2247.26 460 2235.76 462.5 2226.09 467.5C2216.76 472.167 2209.09 478.833 2203.09 487.5C2197.09 495.833 2192.76 505.833 2190.09 517.5C2187.43 529.167 2186.09 541.667 2186.09 555C2186.09 585.333 2193.59 608.833 2208.59 625.5C2223.59 641.833 2243.59 650 2268.59 650C2281.26 650 2291.76 649.5 2300.09 648.5C2308.76 647.167 2315.43 645.833 2320.09 644.5V480ZM2320.09 305L2366.59 297V677.5C2355.93 680.5 2342.26 683.5 2325.59 686.5C2308.93 689.5 2289.76 691 2268.09 691C2248.09 691 2230.09 687.833 2214.09 681.5C2198.09 675.167 2184.43 666.167 2173.09 654.5C2161.76 642.833 2152.93 628.667 2146.59 612C2140.59 595 2137.59 576 2137.59 555C2137.59 535 2140.09 516.667 2145.09 500C2150.43 483.333 2158.09 469 2168.09 457C2178.09 445 2190.26 435.667 2204.59 429C2219.26 422.333 2235.93 419 2254.59 419C2269.59 419 2282.76 421 2294.09 425C2305.76 429 2314.43 432.833 2320.09 436.5V305ZM2432.03 555.5C2432.03 532.5 2435.36 512.5 2442.03 495.5C2448.69 478.167 2457.53 463.833 2468.53 452.5C2479.53 441.167 2492.19 432.667 2506.53 427C2520.86 421.333 2535.53 418.5 2550.53 418.5C2585.53 418.5 2612.36 429.5 2631.03 451.5C2649.69 473.167 2659.03 506.333 2659.03 551C2659.03 553 2659.03 555.667 2659.03 559C2659.03 562 2658.86 564.833 2658.53 567.5H2480.53C2482.53 594.5 2490.36 615 2504.03 629C2517.69 643 2539.03 650 2568.03 650C2584.36 650 2598.03 648.667 2609.03 646C2620.36 643 2628.86 640.167 2634.53 637.5L2641.03 676.5C2635.36 679.5 2625.36 682.667 2611.03 686C2597.03 689.333 2581.03 691 2563.03 691C2540.36 691 2520.69 687.667 2504.03 681C2487.69 674 2474.19 664.5 2463.53 652.5C2452.86 640.5 2444.86 626.333 2439.53 610C2434.53 593.333 2432.03 575.167 2432.03 555.5ZM2610.53 530C2610.86 509 2605.53 491.833 2594.53 478.5C2583.86 464.833 2569.03 458 2550.03 458C2539.36 458 2529.86 460.167 2521.53 464.5C2513.53 468.5 2506.69 473.833 2501.03 480.5C2495.36 487.167 2490.86 494.833 2487.53 503.5C2484.53 512.167 2482.53 521 2481.53 530H2610.53ZM2786.32 651.5C2805.32 651.5 2819.32 649 2828.32 644C2837.66 639 2842.32 631 2842.32 620C2842.32 608.667 2837.82 599.667 2828.82 593C2819.82 586.333 2804.99 578.833 2784.32 570.5C2774.32 566.5 2764.66 562.5 2755.32 558.5C2746.32 554.167 2738.49 549.167 2731.82 543.5C2725.16 537.833 2719.82 531 2715.82 523C2711.82 515 2709.82 505.167 2709.82 493.5C2709.82 470.5 2718.32 452.333 2735.32 439C2752.32 425.333 2775.49 418.5 2804.82 418.5C2812.16 418.5 2819.49 419 2826.82 420C2834.16 420.667 2840.99 421.667 2847.32 423C2853.66 424 2859.16 425.167 2863.82 426.5C2868.82 427.833 2872.66 429 2875.32 430L2866.82 470C2861.82 467.333 2853.99 464.667 2843.32 462C2832.66 459 2819.82 457.5 2804.82 457.5C2791.82 457.5 2780.49 460.167 2770.82 465.5C2761.16 470.5 2756.32 478.5 2756.32 489.5C2756.32 495.167 2757.32 500.167 2759.32 504.5C2761.66 508.833 2764.99 512.833 2769.32 516.5C2773.99 519.833 2779.66 523 2786.32 526C2792.99 529 2800.99 532.167 2810.32 535.5C2822.66 540.167 2833.66 544.833 2843.32 549.5C2852.99 553.833 2861.16 559 2867.82 565C2874.82 571 2880.16 578.333 2883.82 587C2887.49 595.333 2889.32 605.667 2889.32 618C2889.32 642 2880.32 660.167 2862.32 672.5C2844.66 684.833 2819.32 691 2786.32 691C2763.32 691 2745.32 689 2732.32 685C2719.32 681.333 2710.49 678.5 2705.82 676.5L2714.32 636.5C2719.66 638.5 2728.16 641.5 2739.82 645.5C2751.49 649.5 2766.99 651.5 2786.32 651.5ZM3042.97 542C3052.97 549.667 3063.47 559.167 3074.47 570.5C3085.8 581.833 3096.8 594.167 3107.47 607.5C3118.47 620.5 3128.8 633.833 3138.47 647.5C3148.14 660.833 3156.3 673.333 3162.97 685H3108.47C3101.47 673.333 3093.3 661.5 3083.97 649.5C3074.97 637.167 3065.47 625.5 3055.47 614.5C3045.47 603.167 3035.3 592.833 3024.97 583.5C3014.64 574.167 3004.8 566.333 2995.47 560V685H2948.97V305L2995.47 297V534C3003.47 526 3012.3 517.167 3021.97 507.5C3031.64 497.833 3041.14 488 3050.47 478C3059.8 468 3068.64 458.5 3076.97 449.5C3085.3 440.167 3092.47 432 3098.47 425H3152.97C3145.3 433.333 3136.97 442.5 3127.97 452.5C3118.97 462.5 3109.64 472.667 3099.97 483C3090.3 493 3080.47 503.167 3070.47 513.5C3060.8 523.5 3051.64 533 3042.97 542Z" fill="#116DF6"/>
</svg>
